<?xml version="1.0" encoding="UTF-8"?>
<!DOCTYPE svg PUBLIC "-//W3C//DTD SVG 1.1//EN" "http://www.w3.org/Graphics/SVG/1.1/DTD/svg11.dtd">
<svg xmlns="http://www.w3.org/2000/svg" version="1.1" width="500px" height="500px" style="shape-rendering:geometricPrecision; text-rendering:geometricPrecision; image-rendering:optimizeQuality; fill-rule:evenodd; clip-rule:evenodd" xmlns:xlink="http://www.w3.org/1999/xlink">
<g><path style="opacity:1" fill="#faf9f8" d="M -0.5,-0.5 C 166.167,-0.5 332.833,-0.5 499.5,-0.5C 499.5,166.167 499.5,332.833 499.5,499.5C 332.833,499.5 166.167,499.5 -0.5,499.5C -0.5,332.833 -0.5,166.167 -0.5,-0.5 Z"/></g>
<g><path style="opacity:1" fill="#403c3d" d="M 448.5,158.5 C 392.833,157.167 337.167,157.167 281.5,158.5C 280.711,158.217 280.044,157.717 279.5,157C 336.5,156.333 393.5,156.333 450.5,157C 449.956,157.717 449.289,158.217 448.5,158.5 Z"/></g>
<g><path style="opacity:1" fill="#252122" d="M 69.5,172.5 C 69.5386,171.244 69.0386,170.244 68,169.5C 67.5001,186.83 67.3334,204.163 67.5,221.5C 65.8333,221.5 64.1667,221.5 62.5,221.5C 62.8245,199.782 62.1579,178.116 60.5,156.5C 76.0779,156.176 91.5779,156.509 107,157.5C 116.5,178.5 126,199.5 135.5,220.5C 120.5,221.833 105.5,221.833 90.5,220.5C 83.4931,204.471 76.4931,188.471 69.5,172.5 Z"/></g>
<g><path style="opacity:1" fill="#242021" d="M 227.5,156.5 C 241.5,156.5 255.5,156.5 269.5,156.5C 267.776,178.122 267.11,199.788 267.5,221.5C 254.167,221.5 240.833,221.5 227.5,221.5C 227.667,204.163 227.5,186.83 227,169.5C 219.667,186.671 212.834,204.004 206.5,221.5C 204.396,221.799 202.396,221.466 200.5,220.5C 209.507,199.138 218.507,177.804 227.5,156.5 Z"/></g>
<g><path style="opacity:1" fill="#231f20" d="M 448.5,158.5 C 444.756,164.313 440.756,169.98 436.5,175.5C 424.773,168.369 412.106,164.035 398.5,162.5C 394.03,161.514 389.363,161.181 384.5,161.5C 384.5,181.5 384.5,201.5 384.5,221.5C 371.5,221.5 358.5,221.5 345.5,221.5C 345.5,201.5 345.5,181.5 345.5,161.5C 326.674,160.665 309.341,165.332 293.5,175.5C 288.755,170.339 284.755,164.672 281.5,158.5C 337.167,157.167 392.833,157.167 448.5,158.5 Z"/></g>
<g><path style="opacity:1" fill="#c1bfbe" d="M 398.5,162.5 C 394.167,162.5 389.833,162.5 385.5,162.5C 385.83,182.34 385.497,202.007 384.5,221.5C 384.5,201.5 384.5,181.5 384.5,161.5C 389.363,161.181 394.03,161.514 398.5,162.5 Z"/></g>
<g><path style="opacity:1" fill="#b4b2b1" d="M 69.5,172.5 C 68.8333,188.833 68.1667,205.167 67.5,221.5C 67.3334,204.163 67.5001,186.83 68,169.5C 69.0386,170.244 69.5386,171.244 69.5,172.5 Z"/></g>
<g><path style="opacity:1" fill="#757574" d="M 270.5,232.5 C 267.833,231.167 265.167,231.167 262.5,232.5C 261.957,232.44 261.624,232.107 261.5,231.5C 264.833,230.167 268.167,230.167 271.5,231.5C 271.376,232.107 271.043,232.44 270.5,232.5 Z"/></g>
<g><path style="opacity:1" fill="#212120" d="M 88.5,230.5 C 90.4023,233.337 91.069,236.671 90.5,240.5C 92.288,240.215 93.9547,240.548 95.5,241.5C 93.2573,242.474 90.924,242.808 88.5,242.5C 88.5,238.5 88.5,234.5 88.5,230.5 Z"/></g>
<g><path style="opacity:1" fill="#1e1e1e" d="M 110.5,230.5 C 111.794,232.048 112.461,234.048 112.5,236.5C 112.167,238.5 111.833,240.5 111.5,242.5C 110.509,238.555 110.176,234.555 110.5,230.5 Z"/></g>
<g><path style="opacity:1" fill="#878686" d="M 131.5,231.5 C 129.586,234.684 128.92,238.351 129.5,242.5C 128.517,238.702 128.183,234.702 128.5,230.5C 129.791,230.263 130.791,230.596 131.5,231.5 Z"/></g>
<g><path style="opacity:1" fill="#0d0d0d" d="M 131.5,231.5 C 132.701,233.909 134.367,235.909 136.5,237.5C 137.397,236.319 137.897,234.319 138,231.5C 138.499,235.152 138.665,238.818 138.5,242.5C 135.55,240.379 133.05,237.713 131,234.5C 130.817,237.365 130.317,240.031 129.5,242.5C 128.92,238.351 129.586,234.684 131.5,231.5 Z"/></g>
<g><path style="opacity:1" fill="#818180" d="M 138.5,242.5 C 138.665,238.818 138.499,235.152 138,231.5C 137.897,234.319 137.397,236.319 136.5,237.5C 136.5,235.167 136.5,232.833 136.5,230.5C 137.5,230.5 138.5,230.5 139.5,230.5C 139.817,234.702 139.483,238.702 138.5,242.5 Z"/></g>
<g><path style="opacity:1" fill="#333332" d="M 155.5,231.5 C 156.787,232.871 157.453,234.705 157.5,237C 157.167,238.833 156.833,240.667 156.5,242.5C 155.511,238.893 155.177,235.226 155.5,231.5 Z"/></g>
<g><path style="opacity:1" fill="#212120" d="M 223.5,230.5 C 225.402,233.337 226.069,236.671 225.5,240.5C 227.288,240.215 228.955,240.548 230.5,241.5C 228.257,242.474 225.924,242.808 223.5,242.5C 223.5,238.5 223.5,234.5 223.5,230.5 Z"/></g>
<g><path style="opacity:1" fill="#040404" d="M 262.5,232.5 C 265.167,231.167 267.833,231.167 270.5,232.5C 269.5,232.5 268.5,232.5 267.5,232.5C 266.833,245.833 266.167,245.833 265.5,232.5C 264.5,232.5 263.5,232.5 262.5,232.5 Z"/></g>
<g><path style="opacity:1" fill="#838282" d="M 292.5,231.5 C 290.5,231.5 288.5,231.5 286.5,231.5C 286.5,235.167 286.5,238.833 286.5,242.5C 285.517,238.702 285.183,234.702 285.5,230.5C 288.059,230.198 290.393,230.532 292.5,231.5 Z"/></g>
<g><path style="opacity:1" fill="#1e1e1e" d="M 292.5,231.5 C 293.496,231.414 294.329,231.748 295,232.5C 295.682,234.938 295.182,237.105 293.5,239C 293.759,240.261 294.426,241.261 295.5,242C 293.326,241.063 290.993,240.229 288.5,239.5C 288.715,241.179 288.048,242.179 286.5,242.5C 286.5,238.833 286.5,235.167 286.5,231.5C 288.5,231.5 290.5,231.5 292.5,231.5 Z"/></g>
<g><path style="opacity:1" fill="#141414" d="M 336.5,230.5 C 337.794,232.048 338.461,234.048 338.5,236.5C 338.167,238.5 337.833,240.5 337.5,242.5C 336.509,238.555 336.176,234.555 336.5,230.5 Z"/></g>
<g><path style="opacity:1" fill="#191919" d="M 361.5,237.5 C 361.56,238.043 361.893,238.376 362.5,238.5C 363.314,236.234 363.814,233.9 364,231.5C 364.499,235.152 364.665,238.818 364.5,242.5C 361.578,240.406 359.078,237.739 357,234.5C 356.818,237.226 356.318,239.893 355.5,242.5C 354.167,238.5 354.167,234.5 355.5,230.5C 357.735,232.638 359.735,234.971 361.5,237.5 Z"/></g>
<g><path style="opacity:1" fill="#9b9b9b" d="M 364.5,242.5 C 364.665,238.818 364.499,235.152 364,231.5C 363.814,233.9 363.314,236.234 362.5,238.5C 361.893,238.376 361.56,238.043 361.5,237.5C 362.468,235.393 362.802,233.059 362.5,230.5C 363.5,230.5 364.5,230.5 365.5,230.5C 365.817,234.702 365.483,238.702 364.5,242.5 Z"/></g>
<g><path style="opacity:1" fill="#333332" d="M 381.5,231.5 C 382.787,232.871 383.453,234.705 383.5,237C 383.167,238.833 382.833,240.667 382.5,242.5C 381.511,238.893 381.177,235.226 381.5,231.5 Z"/></g>
<g><path style="opacity:1" fill="#1a1a1a" d="M 175.5,231.5 C 177.924,231.192 180.257,231.526 182.5,232.5C 180.657,232.755 178.657,232.922 176.5,233C 173.833,235.333 173.833,237.667 176.5,240C 178.441,240.743 180.274,240.576 182,239.5C 182.688,240.332 182.521,240.998 181.5,241.5C 176.385,243.727 173.385,242.06 172.5,236.5C 172.757,234.308 173.757,232.641 175.5,231.5 Z"/></g>
<g><path style="opacity:1" fill="#d9d8d7" d="M 287.5,232.5 C 289.199,232.34 290.866,232.506 292.5,233C 293.833,234.333 293.833,235.667 292.5,237C 290.866,237.494 289.199,237.66 287.5,237.5C 287.5,235.833 287.5,234.167 287.5,232.5 Z"/></g>
<g><path style="opacity:1" fill="#1d1d1d" d="M 407.5,230.5 C 408.794,232.048 409.461,234.048 409.5,236.5C 409.167,238.5 408.833,240.5 408.5,242.5C 405.878,240.589 403.711,238.255 402,235.5C 401.814,237.9 401.314,240.234 400.5,242.5C 398.027,230.195 400.193,228.862 407,238.5C 407.497,235.854 407.664,233.187 407.5,230.5 Z"/></g>
<g><path style="opacity:1" fill="#161616" d="M 201.5,231.5 C 202.675,231.281 203.675,231.614 204.5,232.5C 206.396,235.827 207.396,239.16 207.5,242.5C 204.367,238.564 201.2,238.564 198,242.5C 198.548,238.712 199.715,235.046 201.5,231.5 Z"/></g>
<g><path style="opacity:1" fill="#cfcecd" d="M 202.5,233.5 C 203.931,234.78 204.598,236.447 204.5,238.5C 203.022,238.762 201.689,238.429 200.5,237.5C 201.18,236.14 201.847,234.807 202.5,233.5 Z"/></g>
<g><path style="opacity:1" fill="#161616" d="M 314.5,231.5 C 315.675,231.281 316.675,231.614 317.5,232.5C 319.396,235.827 320.396,239.16 320.5,242.5C 317.367,238.564 314.2,238.564 311,242.5C 311.548,238.712 312.715,235.046 314.5,231.5 Z"/></g>
<g><path style="opacity:1" fill="#cfcecd" d="M 315.5,233.5 C 316.931,234.78 317.598,236.447 317.5,238.5C 316.022,238.762 314.689,238.429 313.5,237.5C 314.18,236.14 314.847,234.807 315.5,233.5 Z"/></g>
<g><path style="opacity:1" fill="#232323" d="M 67.5,230.5 C 70.0217,230.128 72.0217,230.961 73.5,233C 67.5835,231.251 65.0835,233.417 66,239.5C 68.1317,240.78 70.2984,240.78 72.5,239.5C 73.6039,240.631 73.2705,241.465 71.5,242C 65.1714,242.668 62.6714,239.834 64,233.5C 65.1451,232.364 66.3117,231.364 67.5,230.5 Z"/></g>
<g><path style="opacity:1" fill="#232323" d="M 427.5,231.5 C 429.924,231.192 432.257,231.526 434.5,232.5C 432.761,232.594 430.761,232.761 428.5,233C 425.329,238.362 426.996,240.862 433.5,240.5C 433.238,239.022 433.571,237.689 434.5,236.5C 435.893,238.674 435.56,240.507 433.5,242C 428.583,243.211 425.583,241.378 424.5,236.5C 425.092,234.577 426.092,232.911 427.5,231.5 Z"/></g>
<g><path style="opacity:1" fill="#757574" d="M 214.5,255.5 C 211.833,254.167 209.167,254.167 206.5,255.5C 205.957,255.44 205.624,255.107 205.5,254.5C 208.833,253.167 212.167,253.167 215.5,254.5C 215.376,255.107 215.043,255.44 214.5,255.5 Z"/></g>
<g><path style="opacity:1" fill="#040404" d="M 206.5,255.5 C 209.167,254.167 211.833,254.167 214.5,255.5C 213.5,255.5 212.5,255.5 211.5,255.5C 210.833,268.833 210.167,268.833 209.5,255.5C 208.5,255.5 207.5,255.5 206.5,255.5 Z"/></g>
<g><path style="opacity:1" fill="#7f7f7e" d="M 237.5,255.5 C 235.393,254.532 233.059,254.198 230.5,254.5C 230.5,258.167 230.5,261.833 230.5,265.5C 229.517,261.702 229.183,257.702 229.5,253.5C 232.572,253.183 235.572,253.516 238.5,254.5C 238.376,255.107 238.043,255.44 237.5,255.5 Z"/></g>
<g><path style="opacity:1" fill="#151514" d="M 237.5,255.5 C 235.833,255.5 234.167,255.5 232.5,255.5C 231.566,256.568 231.232,257.901 231.5,259.5C 233.5,259.5 235.5,259.5 237.5,259.5C 236.081,260.451 234.415,260.784 232.5,260.5C 232.5,261.5 232.5,262.5 232.5,263.5C 234.604,263.201 236.604,263.534 238.5,264.5C 235.914,265.48 233.247,265.813 230.5,265.5C 230.5,261.833 230.5,258.167 230.5,254.5C 233.059,254.198 235.393,254.532 237.5,255.5 Z"/></g>
<g><path style="opacity:1" fill="#5a5959" d="M 232.5,255.5 C 232.5,256.5 232.5,257.5 232.5,258.5C 234.415,258.216 236.081,258.549 237.5,259.5C 235.5,259.5 233.5,259.5 231.5,259.5C 231.232,257.901 231.566,256.568 232.5,255.5 Z"/></g>
<g><path style="opacity:1" fill="#1c1c1c" d="M 257.5,253.5 C 258.496,253.414 259.329,253.748 260,254.5C 261.226,257.952 262.726,261.285 264.5,264.5C 264.167,264.833 263.833,265.167 263.5,265.5C 262.588,263.257 260.922,262.257 258.5,262.5C 256.382,263.474 254.382,264.307 252.5,265C 254.308,261.219 255.974,257.385 257.5,253.5 Z"/></g>
<g><path style="opacity:1" fill="#1a1a1a" d="M 290.5,265.5 C 290.664,262.813 290.497,260.146 290,257.5C 289.283,258.044 288.783,258.711 288.5,259.5C 286.053,266.001 283.886,265.668 282,258.5C 281.814,260.9 281.314,263.234 280.5,265.5C 279.167,261.5 279.167,257.5 280.5,253.5C 282.567,255.956 284.401,258.622 286,261.5C 286.452,257.862 288.286,255.528 291.5,254.5C 291.815,258.371 291.482,262.038 290.5,265.5 Z"/></g>
<g><path style="opacity:1" fill="#727271" d="M 290.5,265.5 C 289.833,263.5 289.167,261.5 288.5,259.5C 288.783,258.711 289.283,258.044 290,257.5C 290.497,260.146 290.664,262.813 290.5,265.5 Z"/></g>
<g><path style="opacity:1" fill="#bfbebd" d="M 257.5,257.5 C 259.121,257.787 260.121,258.787 260.5,260.5C 259.167,261.833 257.833,261.833 256.5,260.5C 257.127,259.583 257.461,258.583 257.5,257.5 Z"/></g>
<g><path style="opacity:1" fill="#2e2a2b" d="M 62.5,274.5 C 64.1667,274.5 65.8333,274.5 67.5,274.5C 67.1143,298.237 68.1143,321.904 70.5,345.5C 67.1667,345.5 63.8333,345.5 60.5,345.5C 62.1799,321.87 62.8465,298.203 62.5,274.5 Z"/></g>
<g><path style="opacity:1" fill="#242021" d="M 114.5,274.5 C 129.515,274.167 144.515,274.501 159.5,275.5C 162.667,282.5 165.833,289.5 169,296.5C 172,289.5 175,282.5 178,275.5C 180.139,274.231 182.305,274.231 184.5,275.5C 174.099,300.376 164.099,325.376 154.5,350.5C 151.833,350.5 149.167,350.5 146.5,350.5C 135.84,325.177 125.173,299.844 114.5,274.5 Z"/></g>
<g><path style="opacity:1" fill="#242021" d="M 227.5,274.5 C 240.833,274.5 254.167,274.5 267.5,274.5C 267.174,298.201 267.841,321.867 269.5,345.5C 254.833,345.5 240.167,345.5 225.5,345.5C 227.18,321.869 227.847,298.202 227.5,274.5 Z"/></g>
<g><path style="opacity:1" fill="#231f20" d="M 345.5,274.5 C 358.5,274.5 371.5,274.5 384.5,274.5C 383.807,297.96 384.807,321.293 387.5,344.5C 372.515,345.499 357.515,345.833 342.5,345.5C 345.064,321.912 346.064,298.245 345.5,274.5 Z"/></g>
</svg>
